<svg xmlns="http://www.w3.org/2000/svg" width="80" height="24" viewBox="0 0 80 24" fill="none">
<g clip-path="url(#clip0_logo_dark)">
<path d="M12.5332 2.12305V9.13086L3.83105 4.10547L9.89355 0.598633L12.5332 2.12305Z" fill="#F5F5F7" stroke="rgba(0,0,0,0.35)" stroke-width="0.3"/>
<path d="M8.87012 8.17773L0.150391 13.2119V6.2373L2.82715 4.68848L8.87012 8.17773Z" fill="#F5F5F7" stroke="rgba(0,0,0,0.35)" stroke-width="0.3"/>
<path d="M6.20801 20.9111L0.150391 17.4414V14.3662L6.20801 10.8682V20.9111Z" fill="#F5F5F7" stroke="rgba(0,0,0,0.35)" stroke-width="0.3"/>
<path d="M15.9209 19.5293L9.88281 23.0156L7.21289 21.4854V14.502L15.9209 19.5293Z" fill="#F5F5F7" stroke="rgba(0,0,0,0.35)" stroke-width="0.3"/>
<path d="M19.5957 17.4092L16.9268 18.9492L10.8779 15.457L19.5957 10.4238V17.4092Z" fill="#F5F5F7" stroke="rgba(0,0,0,0.35)" stroke-width="0.3"/>
<path d="M19.5908 6.2041V9.26953L13.5332 12.7666V2.70508L19.5908 6.2041Z" fill="#F5F5F7" stroke="rgba(0,0,0,0.35)" stroke-width="0.3"/>
<path d="M12.5332 10.29V13.3447L9.87207 14.8809L7.21289 13.3457V10.292L9.875 8.75488L12.5332 10.29Z" fill="#F5F5F7" stroke="rgba(0,0,0,0.35)" stroke-width="0.3"/>
<path d="M24.2734 17.4949V6.19141H30.2088C31.619 6.19141 32.6718 6.53015 33.3672 7.20842C33.863 7.69335 34.1109 8.31189 34.1109 9.06482C34.1109 10.2382 33.5159 11.0776 32.3261 11.5838C33.0752 11.8203 33.6457 12.1591 34.0375 12.6008C34.4293 13.0425 34.6249 13.6343 34.6245 14.3762C34.6245 15.3461 34.2387 16.1069 33.467 16.661C32.6954 17.2143 31.6205 17.4925 30.2425 17.4949H24.2734ZM27.3981 14.9767H29.8783C30.9029 14.9767 31.4154 14.6214 31.4159 13.911C31.4159 13.2327 30.8921 12.8939 29.8446 12.8939H27.3987L27.3981 14.9767ZM27.3981 10.698H29.4156C30.4291 10.698 30.936 10.3593 30.936 9.681C30.936 9.03574 30.4512 8.71272 29.4817 8.71272H27.3981V10.698ZM35.9795 17.4949V8.76145H39.1208V17.4949H35.9795ZM35.9134 7.97V6.19377H39.1869V7.97H35.9134ZM40.2101 17.4949L44.1763 11.748L40.3741 6.19534H44.0646L46.1138 9.37606L48.1801 6.19534H51.7854L47.9825 11.7166L51.9487 17.4964H48.2641L46.0484 14.0901L43.816 17.4964L40.2101 17.4949ZM53.1557 17.4949V6.19141H59.0911C60.5012 6.19141 61.5539 6.53015 62.2488 7.20842C62.745 7.69335 62.9932 8.31189 62.9932 9.06482C62.9932 10.2382 62.3982 11.0776 61.2084 11.5838C61.9575 11.8203 62.528 12.1591 62.9198 12.6008C63.3116 13.0425 63.5072 13.6343 63.5068 14.3762C63.5068 15.3461 63.1211 16.1069 62.3499 16.661C61.5788 17.2143 60.5039 17.4917 59.1255 17.4925L53.1557 17.4949ZM56.281 14.9767H58.7612C59.7863 14.9767 60.2988 14.6214 60.2988 13.911C60.2988 13.2327 59.7753 12.8939 58.7282 12.8939H56.2824L56.281 14.9767ZM56.281 10.698H58.2979C59.3114 10.698 59.8182 10.3593 59.8182 9.681C59.8182 9.03574 59.3335 8.71272 58.3639 8.71272H56.283L56.281 10.698ZM64.8605 17.4949V8.76145H68.0024V17.4949H64.8605ZM64.7944 7.97V6.19377H68.0678V7.97H64.7944ZM72.7664 17.4949V8.93829H69.2947V6.19377H79.4461V8.93829H75.9744V17.4949H72.7664Z" fill="#F5F5F7"/>
</g>
<defs>
<clipPath id="clip0_logo_dark">
<rect width="80" height="24" fill="white"/>
</clipPath>
</defs>
</svg>
